<mxfile host="app.diagrams.net" modified="2022-05-15T11:13:04.902Z" agent="5.0 (Windows NT 10.0; Win64; x64) AppleWebKit/537.36 (KHTML, like Gecko) Chrome/101.0.4951.54 Safari/537.36" etag="-GVlX5AVpwxJs8C8u2Xe" version="18.0.4" type="github">
  <diagram name="Page-1" id="58cdce13-f638-feb5-8d6f-7d28b1aa9fa0">
    <mxGraphModel dx="2062" dy="1065" grid="1" gridSize="10" guides="1" tooltips="1" connect="1" arrows="1" fold="1" page="1" pageScale="1" pageWidth="1100" pageHeight="850" background="#FFFFFF" math="0" shadow="0">
      <root>
        <mxCell id="0" />
        <mxCell id="1" parent="0" />
        <mxCell id="HAFtedTQ8YFCFTGdOYg0-29" style="edgeStyle=orthogonalEdgeStyle;rounded=0;orthogonalLoop=1;jettySize=auto;html=1;exitX=0.5;exitY=1;exitDx=0;exitDy=0;entryX=0.272;entryY=0;entryDx=0;entryDy=0;entryPerimeter=0;" edge="1" parent="1" source="HAFtedTQ8YFCFTGdOYg0-21" target="HAFtedTQ8YFCFTGdOYg0-27">
          <mxGeometry relative="1" as="geometry" />
        </mxCell>
        <mxCell id="HAFtedTQ8YFCFTGdOYg0-21" value="&lt;p style=&quot;margin:0px;margin-top:4px;text-align:center;text-decoration:underline;&quot;&gt;&lt;b&gt;Object: Customer&lt;/b&gt;&lt;/p&gt;&lt;hr&gt;&lt;p style=&quot;margin:0px;margin-left:8px;&quot;&gt;int orderNumber&lt;br&gt;String name&lt;br&gt;String contactNumber&lt;br&gt;String StreetAddress&lt;br&gt;String Suburb&lt;br&gt;String emailAddress&lt;br&gt;String nameOfRestaurantBeingOrderedFrom&lt;br&gt;String&amp;nbsp;locationOfRestaurantBeingOrderedFrom&lt;br&gt;String&amp;nbsp;contactNumberOfRestaurantBeingOrderedFrom&lt;/p&gt;&lt;p style=&quot;margin:0px;margin-left:8px;&quot;&gt;String [] listOfMealsBeingOrdered&lt;br&gt;&lt;/p&gt;&lt;div style=&quot;padding: 0px; margin: 0px;&quot;&gt;&amp;nbsp; &amp;nbsp;int [] howManyOfEachMealIsBeingOrdered&lt;br&gt;&amp;nbsp; &amp;nbsp;int [] priceOfEachMeal&lt;br&gt;&amp;nbsp; &amp;nbsp;String specialPreperationInstructions&lt;br&gt;&amp;nbsp; &amp;nbsp;int totalAmountToBePaid&lt;/div&gt;&lt;div style=&quot;padding: 0px; margin: 0px;&quot;&gt;&amp;nbsp; &amp;nbsp;String driverCollecting&lt;/div&gt;&lt;div style=&quot;padding: 0px; margin: 0px;&quot;&gt;&amp;nbsp; &amp;nbsp;&lt;/div&gt;" style="verticalAlign=top;align=left;overflow=fill;fontSize=12;fontFamily=Helvetica;html=1;" vertex="1" parent="1">
          <mxGeometry x="170" width="310" height="250" as="geometry" />
        </mxCell>
        <mxCell id="HAFtedTQ8YFCFTGdOYg0-31" style="edgeStyle=orthogonalEdgeStyle;rounded=0;orthogonalLoop=1;jettySize=auto;html=1;exitX=0.5;exitY=1;exitDx=0;exitDy=0;entryX=0.686;entryY=-0.057;entryDx=0;entryDy=0;entryPerimeter=0;" edge="1" parent="1" source="HAFtedTQ8YFCFTGdOYg0-22" target="HAFtedTQ8YFCFTGdOYg0-27">
          <mxGeometry relative="1" as="geometry" />
        </mxCell>
        <mxCell id="HAFtedTQ8YFCFTGdOYg0-22" value="&lt;p style=&quot;margin:0px;margin-top:4px;text-align:center;text-decoration:underline;&quot;&gt;&lt;b&gt;Object: restaurant&lt;/b&gt;&lt;/p&gt;&lt;hr&gt;&lt;p style=&quot;margin:0px;margin-left:8px;&quot;&gt;String nameOfRestaurant&lt;/p&gt;&lt;p style=&quot;margin:0px;margin-left:8px;&quot;&gt;&lt;span style=&quot;&quot;&gt;	&lt;/span&gt;String locationOfRestaurant&lt;/p&gt;&lt;p style=&quot;margin:0px;margin-left:8px;&quot;&gt;&lt;span style=&quot;&quot;&gt;	&lt;/span&gt;String contactNumberOfRestaurant&lt;/p&gt;&lt;div style=&quot;padding: 0px; margin: 0px;&quot;&gt;&amp;nbsp; &amp;nbsp;&lt;/div&gt;" style="verticalAlign=top;align=left;overflow=fill;fontSize=12;fontFamily=Helvetica;html=1;" vertex="1" parent="1">
          <mxGeometry x="500" width="200" height="80" as="geometry" />
        </mxCell>
        <mxCell id="HAFtedTQ8YFCFTGdOYg0-23" style="edgeStyle=orthogonalEdgeStyle;rounded=0;orthogonalLoop=1;jettySize=auto;html=1;exitX=0.5;exitY=1;exitDx=0;exitDy=0;" edge="1" parent="1" source="HAFtedTQ8YFCFTGdOYg0-22" target="HAFtedTQ8YFCFTGdOYg0-22">
          <mxGeometry relative="1" as="geometry" />
        </mxCell>
        <mxCell id="HAFtedTQ8YFCFTGdOYg0-25" value="" style="edgeStyle=orthogonalEdgeStyle;html=1;verticalAlign=bottom;endArrow=open;endSize=8;strokeColor=#ff0000;rounded=0;startArrow=none;entryX=-0.01;entryY=0.589;entryDx=0;entryDy=0;entryPerimeter=0;" edge="1" source="HAFtedTQ8YFCFTGdOYg0-24" parent="1" target="HAFtedTQ8YFCFTGdOYg0-21">
          <mxGeometry relative="1" as="geometry">
            <mxPoint x="80" y="160" as="targetPoint" />
            <mxPoint x="-100" y="160" as="sourcePoint" />
            <Array as="points">
              <mxPoint x="76" y="160" />
            </Array>
          </mxGeometry>
        </mxCell>
        <mxCell id="HAFtedTQ8YFCFTGdOYg0-24" value="" style="ellipse;html=1;shape=startState;fillColor=#000000;strokeColor=#ff0000;direction=south;" vertex="1" parent="1">
          <mxGeometry x="10" y="140" width="30" height="30" as="geometry" />
        </mxCell>
        <mxCell id="HAFtedTQ8YFCFTGdOYg0-27" value="&lt;p style=&quot;margin:0px;margin-top:4px;text-align:center;&quot;&gt;&lt;b&gt;Public Class: Quick foods&lt;/b&gt;&lt;/p&gt;&lt;hr size=&quot;1&quot;&gt;&lt;div style=&quot;height:2px;&quot;&gt;&lt;/div&gt;&lt;hr size=&quot;1&quot;&gt;&lt;div style=&quot;height:2px;&quot;&gt;&lt;/div&gt;" style="verticalAlign=top;align=left;overflow=fill;fontSize=12;fontFamily=Helvetica;html=1;" vertex="1" parent="1">
          <mxGeometry x="170" y="320" width="570" height="70" as="geometry" />
        </mxCell>
        <mxCell id="HAFtedTQ8YFCFTGdOYg0-28" value="&lt;p style=&quot;margin:0px;margin-top:4px;text-align:center;&quot;&gt;&lt;span style=&quot;background-color: initial; text-align: left;&quot;&gt;+ public static int TotalAmount(int [], int [])&lt;br&gt;&lt;br&gt;&lt;/span&gt;- Determines and returns the total amount payable&lt;/p&gt;&lt;p style=&quot;margin:0px;margin-top:4px;text-align:center;&quot;&gt;&lt;span style=&quot;background-color: initial; text-align: left;&quot;&gt;&lt;br&gt;&lt;/span&gt;&lt;/p&gt;&lt;p style=&quot;margin:0px;margin-left:4px;&quot;&gt;&amp;nbsp; &amp;nbsp; &amp;nbsp; &amp;nbsp; &amp;nbsp; &amp;nbsp; &amp;nbsp; &amp;nbsp; &amp;nbsp; &amp;nbsp; &amp;nbsp; &amp;nbsp; &amp;nbsp; &amp;nbsp; &amp;nbsp; &amp;nbsp; &amp;nbsp; &amp;nbsp; + public static String&amp;nbsp;GetDriverInSameLocationAsRestaurant (String, 30 x String [])&lt;br&gt;&amp;nbsp; &amp;nbsp; &amp;nbsp; &amp;nbsp; &amp;nbsp; &amp;nbsp; &amp;nbsp; &amp;nbsp; &amp;nbsp; &amp;nbsp; &amp;nbsp; &amp;nbsp; &amp;nbsp; &amp;nbsp; &amp;nbsp; &amp;nbsp; &amp;nbsp; &amp;nbsp; &amp;nbsp; &amp;nbsp;&lt;br&gt;&amp;nbsp; &amp;nbsp; &amp;nbsp; &amp;nbsp; &amp;nbsp; &amp;nbsp; &amp;nbsp; &amp;nbsp; &amp;nbsp; &amp;nbsp; &amp;nbsp; &amp;nbsp; &amp;nbsp; &amp;nbsp; &amp;nbsp; &amp;nbsp; &amp;nbsp; &amp;nbsp; &amp;nbsp; &amp;nbsp;- returns a driver that is in the same location as the restaurant&amp;nbsp;&lt;br&gt;&lt;br&gt;&amp;nbsp; &amp;nbsp; &amp;nbsp; &amp;nbsp; &amp;nbsp; &amp;nbsp; &amp;nbsp; &amp;nbsp; &amp;nbsp; &amp;nbsp; &amp;nbsp; &amp;nbsp; &amp;nbsp; &amp;nbsp; &amp;nbsp; &amp;nbsp; &amp;nbsp; &amp;nbsp; &amp;nbsp; - Also returns if no driver is in the same location&lt;br&gt;&amp;nbsp; &amp;nbsp; &amp;nbsp; &amp;nbsp; &amp;nbsp; &amp;nbsp; &amp;nbsp; &amp;nbsp; &amp;nbsp; &amp;nbsp; &amp;nbsp; &amp;nbsp; &amp;nbsp; &amp;nbsp; &amp;nbsp; &amp;nbsp; &amp;nbsp; &amp;nbsp; &amp;nbsp;&lt;/p&gt;" style="verticalAlign=top;align=left;overflow=fill;fontSize=12;fontFamily=Helvetica;html=1;" vertex="1" parent="1">
          <mxGeometry x="170" y="340" width="570" height="140" as="geometry" />
        </mxCell>
        <mxCell id="HAFtedTQ8YFCFTGdOYg0-32" value="&lt;p style=&quot;margin:0px;margin-top:4px;text-align:center;&quot;&gt;&lt;b&gt;Class&lt;/b&gt;&lt;/p&gt;&lt;hr size=&quot;1&quot;&gt;&lt;div style=&quot;height:2px;&quot;&gt;&amp;nbsp;- Reads through and stores the drivers into an arrayList&lt;br&gt;&lt;br&gt;&amp;nbsp;- Then stores the individual drivers into their own array with all their information&lt;br&gt;&lt;br&gt;&amp;nbsp;- User captures a new Restaurant object&lt;br&gt;&lt;br&gt;&amp;nbsp;- User captures a new Customer object&lt;br&gt;&lt;br&gt;&amp;nbsp;- Outputs relevant information to the invoice.txt&amp;nbsp;&lt;br&gt;&lt;br&gt;&lt;br&gt;&lt;/div&gt;" style="verticalAlign=top;align=left;overflow=fill;fontSize=12;fontFamily=Helvetica;html=1;" vertex="1" parent="1">
          <mxGeometry x="170" y="530" width="570" height="210" as="geometry" />
        </mxCell>
        <mxCell id="HAFtedTQ8YFCFTGdOYg0-33" value="return" style="html=1;verticalAlign=bottom;endArrow=open;dashed=1;endSize=8;rounded=0;exitX=1.004;exitY=0.157;exitDx=0;exitDy=0;exitPerimeter=0;entryX=1.004;entryY=0.571;entryDx=0;entryDy=0;entryPerimeter=0;" edge="1" parent="1" source="HAFtedTQ8YFCFTGdOYg0-28" target="HAFtedTQ8YFCFTGdOYg0-32">
          <mxGeometry x="0.4608" y="-18" relative="1" as="geometry">
            <mxPoint x="810" y="400" as="sourcePoint" />
            <mxPoint x="850" y="400" as="targetPoint" />
            <Array as="points">
              <mxPoint x="800" y="362" />
              <mxPoint x="800" y="460" />
              <mxPoint x="800" y="530" />
              <mxPoint x="800" y="650" />
            </Array>
            <mxPoint as="offset" />
          </mxGeometry>
        </mxCell>
        <mxCell id="HAFtedTQ8YFCFTGdOYg0-34" value="return" style="html=1;verticalAlign=bottom;endArrow=open;dashed=1;endSize=8;rounded=0;exitX=1;exitY=1;exitDx=0;exitDy=0;entryX=0.998;entryY=0.705;entryDx=0;entryDy=0;entryPerimeter=0;" edge="1" parent="1" source="HAFtedTQ8YFCFTGdOYg0-28" target="HAFtedTQ8YFCFTGdOYg0-32">
          <mxGeometry relative="1" as="geometry">
            <mxPoint x="980" y="480" as="sourcePoint" />
            <mxPoint x="880" y="680" as="targetPoint" />
            <Array as="points">
              <mxPoint x="940" y="480" />
              <mxPoint x="940" y="680" />
            </Array>
          </mxGeometry>
        </mxCell>
        <mxCell id="HAFtedTQ8YFCFTGdOYg0-35" value="" style="ellipse;html=1;shape=endState;fillColor=#000000;strokeColor=#ff0000;" vertex="1" parent="1">
          <mxGeometry x="430" y="790" width="30" height="30" as="geometry" />
        </mxCell>
        <mxCell id="HAFtedTQ8YFCFTGdOYg0-36" style="edgeStyle=orthogonalEdgeStyle;rounded=0;orthogonalLoop=1;jettySize=auto;html=1;exitX=0.512;exitY=1;exitDx=0;exitDy=0;entryX=0.5;entryY=0.333;entryDx=0;entryDy=0;entryPerimeter=0;exitPerimeter=0;" edge="1" parent="1" source="HAFtedTQ8YFCFTGdOYg0-32" target="HAFtedTQ8YFCFTGdOYg0-35">
          <mxGeometry relative="1" as="geometry">
            <Array as="points">
              <mxPoint x="440" y="740" />
              <mxPoint x="440" y="800" />
            </Array>
          </mxGeometry>
        </mxCell>
      </root>
    </mxGraphModel>
  </diagram>
</mxfile>
